<mxfile modified="2022-05-04T22:50:26.563Z" host="app.diagrams.net" agent="5.0 (Windows NT 10.0; Win64; x64) AppleWebKit/537.36 (KHTML, like Gecko) Chrome/100.0.4896.127 Safari/537.36 Edg/100.0.1185.50" etag="OVFBAArYrMTqLGFAQwtf" compressed="false" version="17.5.0" type="google">
  <diagram id="XE2ByoIgf4w42Ckoawf9" name="Deployment/Risks">
    <mxGraphModel grid="1" page="1" gridSize="10" guides="1" tooltips="1" connect="1" arrows="1" fold="1" pageScale="1" pageWidth="850" pageHeight="1100" math="0" shadow="0">
      <root>
        <mxCell id="P_u5eONuT1AQ3Fa5e8j4-0" />
        <mxCell id="vobcgx3QQjD1FNWSETSd-2" value="Diagram" parent="P_u5eONuT1AQ3Fa5e8j4-0" />
        <mxCell id="P_u5eONuT1AQ3Fa5e8j4-2" value="MUST NOT save integration Secrets in Service&#39;s&amp;nbsp;Configuration file" style="rounded=0;whiteSpace=wrap;html=1;fontFamily=Helvetica;fontSize=12;fontColor=#000000;align=left;strokeColor=#000000;fillColor=#ffffff;" vertex="1" parent="vobcgx3QQjD1FNWSETSd-2">
          <mxGeometry x="120" y="180" width="150" height="40" as="geometry" />
        </mxCell>
        <mxCell id="lyPZhRs7t-mgbPzUVl83-0" value="First, try to use integrated security so that Passwords are not sent across any wire. What secrets are left, use a secure data store (keyvault, etc.)" style="shape=note;whiteSpace=wrap;html=1;size=14;verticalAlign=top;align=left;spacingTop=-6;strokeColor=#999999;strokeWidth=1;fillColor=none;fontFamily=Helvetica;fontSize=12;fontColor=#666666;spacingRight=16;" vertex="1" parent="vobcgx3QQjD1FNWSETSd-2">
          <mxGeometry x="300" y="180" width="380" height="40" as="geometry" />
        </mxCell>
        <mxCell id="lyPZhRs7t-mgbPzUVl83-2" value="MUST NOT use ConnStrings with cleartext UserName/Password&amp;nbsp;" style="rounded=0;whiteSpace=wrap;html=1;fontFamily=Helvetica;fontSize=12;fontColor=#000000;align=left;strokeColor=#000000;fillColor=#ffffff;" vertex="1" parent="vobcgx3QQjD1FNWSETSd-2">
          <mxGeometry x="120" y="230" width="150" height="40" as="geometry" />
        </mxCell>
        <mxCell id="lyPZhRs7t-mgbPzUVl83-4" value="MUST NOT Pass OAuth keys over the wire." style="rounded=0;whiteSpace=wrap;html=1;fontFamily=Helvetica;fontSize=12;fontColor=#000000;align=left;strokeColor=#000000;fillColor=#ffffff;" vertex="1" parent="vobcgx3QQjD1FNWSETSd-2">
          <mxGeometry x="120" y="280" width="150" height="40" as="geometry" />
        </mxCell>
        <mxCell id="lyPZhRs7t-mgbPzUVl83-5" value="Consider using MSI where available." style="shape=note;whiteSpace=wrap;html=1;size=14;verticalAlign=top;align=left;spacingTop=-6;strokeColor=#999999;strokeWidth=1;fillColor=none;fontFamily=Helvetica;fontSize=12;fontColor=#666666;spacingRight=16;" vertex="1" parent="vobcgx3QQjD1FNWSETSd-2">
          <mxGeometry x="300" y="230" width="380" height="40" as="geometry" />
        </mxCell>
        <mxCell id="lyPZhRs7t-mgbPzUVl83-6" value="The least secure communication of credentials is the sending of OAuth Keys, even if over HTTPS.&amp;nbsp;Consider using Azure&#39;s AAD authentication, or its Amazon equivalent." style="shape=note;whiteSpace=wrap;html=1;size=14;verticalAlign=top;align=left;spacingTop=-6;strokeColor=#999999;strokeWidth=1;fillColor=none;fontFamily=Helvetica;fontSize=12;fontColor=#666666;spacingRight=16;" vertex="1" parent="vobcgx3QQjD1FNWSETSd-2">
          <mxGeometry x="300" y="280" width="380" height="40" as="geometry" />
        </mxCell>
        <mxCell id="fIVdv9ueKof0K_yR4s20-9" value="MUST NOT Pass secrets over unencrypted channels" style="rounded=0;whiteSpace=wrap;html=1;fontFamily=Helvetica;fontSize=12;fontColor=#000000;align=left;strokeColor=#000000;fillColor=#ffffff;" vertex="1" parent="vobcgx3QQjD1FNWSETSd-2">
          <mxGeometry x="120" y="330" width="150" height="40" as="geometry" />
        </mxCell>
        <mxCell id="fIVdv9ueKof0K_yR4s20-10" value="There is absolutely no excuse to secure channels between all components. Use HTTPS. Use &#39;secure&#39; on connection strings." style="shape=note;whiteSpace=wrap;html=1;size=14;verticalAlign=top;align=left;spacingTop=-6;strokeColor=#999999;strokeWidth=1;fillColor=none;fontFamily=Helvetica;fontSize=12;fontColor=#666666;spacingRight=16;" vertex="1" parent="vobcgx3QQjD1FNWSETSd-2">
          <mxGeometry x="300" y="330" width="380" height="40" as="geometry" />
        </mxCell>
        <mxCell id="fIVdv9ueKof0K_yR4s20-11" value="MUST NOT Use an Excel Sheet to keep secrets" style="rounded=0;whiteSpace=wrap;html=1;fontFamily=Helvetica;fontSize=12;fontColor=#000000;align=left;strokeColor=#000000;fillColor=#ffffff;" vertex="1" parent="vobcgx3QQjD1FNWSETSd-2">
          <mxGeometry x="120" y="380" width="150" height="40" as="geometry" />
        </mxCell>
        <mxCell id="fIVdv9ueKof0K_yR4s20-12" value="The secrets are now one email attachment away from being available to unauthorised people.&amp;nbsp; It also probably indicates that Convention over Configuration Principle is not being followed." style="shape=note;whiteSpace=wrap;html=1;size=14;verticalAlign=top;align=left;spacingTop=-6;strokeColor=#999999;strokeWidth=1;fillColor=none;fontFamily=Helvetica;fontSize=12;fontColor=#666666;spacingRight=16;" vertex="1" parent="vobcgx3QQjD1FNWSETSd-2">
          <mxGeometry x="300" y="380" width="380" height="40" as="geometry" />
        </mxCell>
        <mxCell id="fIVdv9ueKof0K_yR4s20-13" value="MUST NOT Purchase and use a cert for a year plus." style="rounded=0;whiteSpace=wrap;html=1;fontFamily=Helvetica;fontSize=12;fontColor=#000000;align=left;strokeColor=#000000;fillColor=#ffffff;" vertex="1" parent="vobcgx3QQjD1FNWSETSd-2">
          <mxGeometry x="120" y="430" width="150" height="40" as="geometry" />
        </mxCell>
        <mxCell id="fIVdv9ueKof0K_yR4s20-14" value="Best practice is to use certs for a short time (max 90 days) and redeploy idempotently a new environment, including an updated cert." style="shape=note;whiteSpace=wrap;html=1;size=14;verticalAlign=top;align=left;spacingTop=-6;strokeColor=#999999;strokeWidth=1;fillColor=none;fontFamily=Helvetica;fontSize=12;fontColor=#666666;spacingRight=16;" vertex="1" parent="vobcgx3QQjD1FNWSETSd-2">
          <mxGeometry x="300" y="430" width="380" height="40" as="geometry" />
        </mxCell>
        <mxCell id="fIVdv9ueKof0K_yR4s20-15" value="MUST NOT Blow out your environment every time you redeploy." style="rounded=0;whiteSpace=wrap;html=1;fontFamily=Helvetica;fontSize=12;fontColor=#000000;align=left;strokeColor=#000000;fillColor=#ffffff;" vertex="1" parent="vobcgx3QQjD1FNWSETSd-2">
          <mxGeometry x="120" y="480" width="150" height="40" as="geometry" />
        </mxCell>
        <mxCell id="fIVdv9ueKof0K_yR4s20-16" value="Use Idempotency to ensure the system is down for the least duration. Desired State is tracked by the target platform, not a secondary file (hence why declarative approaches work better)..." style="shape=note;whiteSpace=wrap;html=1;size=14;verticalAlign=top;align=left;spacingTop=-6;strokeColor=#999999;strokeWidth=1;fillColor=none;fontFamily=Helvetica;fontSize=12;fontColor=#666666;spacingRight=16;" vertex="1" parent="vobcgx3QQjD1FNWSETSd-2">
          <mxGeometry x="300" y="480" width="380" height="40" as="geometry" />
        </mxCell>
        <mxCell id="vobcgx3QQjD1FNWSETSd-0" value="Title/Description" parent="P_u5eONuT1AQ3Fa5e8j4-0" />
        <mxCell id="vobcgx3QQjD1FNWSETSd-3" value="&lt;font style=&quot;font-size: 12px ; font-weight: normal&quot;&gt;&lt;i&gt;Diagram: Base&amp;nbsp;&lt;/i&gt;&lt;span style=&quot;font-style: italic&quot;&gt;System&amp;nbsp;&lt;/span&gt;&lt;i&gt;Logical Module -&amp;nbsp;Deployment - Security and Maintainability Issues to avoid&lt;/i&gt;&lt;/font&gt;" style="text;strokeColor=none;fillColor=none;html=1;fontSize=24;fontStyle=1;verticalAlign=middle;align=left;shadow=0;glass=0;comic=0;opacity=30;fontColor=#808080;" vertex="1" parent="vobcgx3QQjD1FNWSETSd-0">
          <mxGeometry x="120" y="560" width="520" height="40" as="geometry" />
        </mxCell>
        <mxCell id="P_u5eONuT1AQ3Fa5e8j4-1" value="Title/Page" visible="0" parent="P_u5eONuT1AQ3Fa5e8j4-0" />
        <mxCell id="fIVdv9ueKof0K_yR4s20-6" value="" style="group;fontSize=10;" vertex="1" connectable="0" parent="P_u5eONuT1AQ3Fa5e8j4-1">
          <mxGeometry x="120" y="120" width="560" height="45" as="geometry" />
        </mxCell>
        <mxCell id="fIVdv9ueKof0K_yR4s20-7" value="&lt;font style=&quot;font-size: 12px&quot;&gt;Base Logical Module -&amp;nbsp;Deployment - Security and Maintainability Issues to avoid&lt;/font&gt;" style="text;strokeColor=none;fillColor=none;html=1;fontSize=24;fontStyle=1;verticalAlign=middle;align=left;shadow=0;glass=0;comic=0;opacity=30;fontColor=#808080;" vertex="1" parent="fIVdv9ueKof0K_yR4s20-6">
          <mxGeometry width="560" height="40" as="geometry" />
        </mxCell>
        <mxCell id="fIVdv9ueKof0K_yR4s20-8" value="" style="line;strokeWidth=2;html=1;shadow=0;glass=0;comic=0;fillColor=none;fontSize=10;fontColor=#CCCCCC;labelBackgroundColor=none;strokeColor=#CCCCCC;" vertex="1" parent="fIVdv9ueKof0K_yR4s20-6">
          <mxGeometry y="35" width="560" height="10" as="geometry" />
        </mxCell>
        <mxCell id="vobcgx3QQjD1FNWSETSd-1" value="About" parent="P_u5eONuT1AQ3Fa5e8j4-0" />
      </root>
    </mxGraphModel>
  </diagram>
</mxfile>
